<svg id="svg" version="1.1" width="100pt" height="100pt" viewBox="0 0 400 400" xmlns="http://www.w3.org/2000/svg" xmlns:xlink="http://www.w3.org/1999/xlink" style="display: block;"><g id="svgg"><path id="path0" d="M204.000 23.800 L 204.000 40.400 232.976 40.400 C 252.655 40.400,262.036 40.534,262.211 40.817 C 262.747 41.685,262.625 47.982,262.067 48.196 C 261.774 48.308,248.589 48.400,232.767 48.400 L 204.000 48.400 204.000 51.797 L 204.000 55.195 233.236 55.297 L 262.473 55.400 262.473 59.000 L 262.473 62.600 233.236 62.703 L 204.000 62.805 204.000 66.403 L 204.000 70.000 222.415 70.000 L 240.830 70.000 240.715 73.700 L 240.600 77.400 222.300 77.504 L 204.000 77.608 204.000 93.004 L 204.000 108.400 208.877 108.400 C 223.362 108.400,236.453 106.263,259.040 100.211 C 267.850 97.850,281.034 91.157,288.439 85.287 C 289.628 84.344,291.549 82.814,292.710 81.887 C 307.058 70.417,308.227 49.000,295.215 35.984 C 277.901 18.665,243.792 7.212,209.500 7.202 L 204.000 7.200 204.000 23.800 M145.869 41.064 C 145.721 41.212,145.600 42.833,145.600 44.667 L 145.600 48.000 174.616 48.000 L 203.631 48.000 203.516 44.500 L 203.400 41.000 174.769 40.897 C 159.022 40.841,146.017 40.916,145.869 41.064 M145.600 59.000 L 145.600 62.400 174.600 62.400 L 203.600 62.400 203.600 59.000 L 203.600 55.600 174.600 55.600 L 145.600 55.600 145.600 59.000 M167.600 73.800 L 167.600 77.200 185.600 77.200 L 203.600 77.200 203.600 73.800 L 203.600 70.400 185.600 70.400 L 167.600 70.400 167.600 73.800 M204.000 133.200 L 204.000 154.923 209.300 154.669 C 237.022 153.336,253.824 138.840,243.635 125.048 C 241.111 121.631,238.123 119.696,229.000 115.572 C 225.162 113.836,215.958 112.057,209.100 111.724 L 204.000 111.476 204.000 133.200 M204.000 175.741 L 204.000 187.200 206.417 187.200 C 208.847 187.200,214.655 186.185,215.400 185.631 C 215.620 185.467,217.123 184.808,218.740 184.166 C 233.071 178.482,225.873 165.670,207.700 164.517 L 204.000 164.282 204.000 175.741 M204.000 202.547 L 204.000 209.600 205.916 209.600 C 220.614 209.600,221.526 196.726,206.900 195.699 L 204.000 195.495 204.000 202.547 M204.000 258.200 L 204.000 283.200 204.916 283.200 C 214.864 283.200,227.258 271.121,228.249 260.459 C 229.389 248.194,216.843 233.297,205.300 233.210 L 204.000 233.200 204.000 258.200 M204.243 286.233 C 204.109 286.581,204.000 312.321,204.000 343.433 L 204.000 400.000 218.000 400.000 L 232.000 400.000 232.004 365.500 C 232.009 331.263,232.096 327.832,232.955 328.118 C 233.269 328.222,233.474 334.075,233.652 348.033 C 234.016 376.570,235.002 380.000,242.842 380.000 C 251.299 380.000,251.970 376.269,251.994 329.091 L 252.009 299.182 250.734 295.956 C 248.482 290.256,244.240 286.836,238.370 285.988 C 233.531 285.288,204.525 285.497,204.243 286.233 " stroke="#ffffff" fill="#ffffff" fill-rule="evenodd"></path><path id="path1" d="" stroke="#ff0000" fill="#ff0000" fill-rule="evenodd"></path><path id="path2" d="" stroke="#ff8000" fill="#ff8000" fill-rule="evenodd"></path><path id="path3" d="M189.600 7.463 C 188.830 7.537,186.130 7.790,183.600 8.024 C 175.150 8.807,163.018 10.932,156.000 12.856 C 151.912 13.978,144.291 16.426,143.800 16.775 C 143.580 16.932,142.605 17.288,141.634 17.566 C 140.663 17.844,138.004 18.955,135.725 20.036 C 133.445 21.116,131.503 22.000,131.409 22.000 C 130.974 22.000,124.090 26.145,123.200 26.942 C 122.650 27.435,121.750 28.061,121.200 28.334 C 120.650 28.606,119.210 29.729,118.000 30.830 C 116.790 31.930,114.849 33.679,113.687 34.715 C 101.144 45.902,99.610 63.533,110.038 76.647 C 116.473 84.738,131.698 94.791,143.000 98.411 C 143.880 98.692,145.167 99.165,145.860 99.461 C 146.554 99.758,147.323 100.000,147.570 100.000 C 147.817 100.000,150.168 100.637,152.795 101.415 C 158.266 103.035,164.815 104.507,170.600 105.416 C 172.800 105.762,174.960 106.208,175.400 106.408 C 176.965 107.116,186.730 108.033,195.300 108.277 L 204.000 108.524 204.000 93.066 L 204.000 77.608 185.700 77.504 L 167.400 77.400 167.285 73.700 L 167.170 70.000 185.585 70.000 L 204.000 70.000 204.000 73.600 L 204.000 77.200 222.216 77.200 L 240.431 77.200 240.316 73.700 L 240.200 70.200 222.100 70.096 L 204.000 69.992 204.000 66.399 L 204.000 62.805 233.100 62.703 L 262.200 62.600 262.316 59.100 L 262.431 55.600 233.216 55.600 L 204.000 55.600 204.000 59.200 L 204.000 62.800 174.585 62.800 L 145.170 62.800 145.285 59.100 L 145.400 55.400 174.700 55.297 L 204.000 55.195 204.000 51.597 L 204.000 48.000 233.200 48.000 L 262.400 48.000 262.400 44.400 L 262.400 40.800 233.200 40.800 L 204.000 40.800 204.000 24.000 L 204.000 7.200 197.500 7.264 C 193.925 7.299,190.370 7.389,189.600 7.463 M204.000 44.400 L 204.000 48.000 174.600 48.000 L 145.200 48.000 145.200 44.400 L 145.200 40.800 174.600 40.800 L 204.000 40.800 204.000 44.400 M191.800 112.189 C 186.283 112.944,180.038 114.606,176.984 116.133 C 176.333 116.458,174.720 117.131,173.400 117.629 C 169.630 119.049,163.235 124.239,163.208 125.900 C 163.204 126.175,163.042 126.400,162.849 126.400 C 161.087 126.400,160.154 134.828,161.555 138.096 C 162.229 139.668,166.419 144.754,167.372 145.157 C 167.577 145.244,168.138 145.739,168.618 146.257 C 169.099 146.776,169.610 147.200,169.754 147.200 C 169.898 147.200,170.741 147.658,171.627 148.217 C 176.795 151.479,191.063 154.774,200.100 154.792 L 204.000 154.800 204.000 133.200 L 204.000 111.600 199.700 111.648 C 197.335 111.674,193.780 111.918,191.800 112.189 M196.000 164.835 C 195.010 165.027,193.840 165.360,193.400 165.576 C 192.960 165.792,191.525 166.270,190.212 166.639 C 187.685 167.347,184.249 169.458,183.238 170.923 C 182.905 171.405,182.400 172.038,182.116 172.329 C 181.007 173.464,181.462 177.977,182.900 180.117 C 184.200 182.051,184.621 182.313,191.800 185.642 C 193.377 186.373,198.253 187.186,201.100 187.193 L 204.000 187.200 204.000 175.800 L 204.000 164.400 200.900 164.444 C 199.195 164.468,196.990 164.644,196.000 164.835 M197.510 196.192 C 191.555 197.831,188.891 201.523,191.040 205.159 C 192.348 207.374,197.764 209.586,201.900 209.595 L 204.000 209.600 204.000 202.600 L 204.000 195.600 201.700 195.636 C 200.435 195.655,198.550 195.906,197.510 196.192 M198.000 233.660 C 195.983 234.219,190.400 236.865,190.400 237.263 C 190.400 237.448,190.134 237.600,189.810 237.600 C 188.818 237.600,183.710 243.029,182.075 245.821 C 178.191 252.455,177.194 258.944,179.076 265.354 C 179.769 267.714,181.948 272.000,182.456 272.000 C 182.645 272.000,182.800 272.182,182.800 272.403 C 182.800 273.055,186.475 277.032,188.711 278.800 C 191.851 281.283,196.178 282.836,200.700 283.105 L 204.000 283.300 204.000 258.250 L 204.000 233.200 201.700 233.236 C 200.435 233.256,198.770 233.447,198.000 233.660 M169.000 285.977 C 164.446 286.764,159.257 291.507,157.157 296.800 C 156.398 298.714,156.090 367.748,156.820 372.400 C 157.993 379.882,162.893 383.106,169.344 380.643 C 171.604 379.779,175.708 374.400,174.106 374.400 C 173.960 374.400,174.056 374.184,174.320 373.920 C 174.682 373.558,174.802 368.006,174.806 351.420 C 174.812 329.092,174.925 327.295,176.208 328.976 C 176.720 329.649,176.800 334.472,176.800 364.876 L 176.800 400.000 190.400 400.000 L 204.000 400.000 204.000 342.800 L 204.000 285.600 187.300 285.650 C 178.115 285.678,169.880 285.825,169.000 285.977 " stroke="#ffc439" fill="#ffc439" fill-rule="evenodd"></path><path id="path4" d="M203.800 40.631 C 203.553 40.734,203.477 42.217,203.600 44.499 L 203.800 48.200 232.800 48.204 L 261.800 48.208 232.900 48.101 L 204.000 47.995 204.000 44.400 L 204.000 40.805 233.100 40.700 L 262.200 40.595 233.200 40.529 C 217.250 40.493,204.020 40.539,203.800 40.631 M145.264 44.500 C 145.329 48.262,145.488 47.814,145.689 43.299 C 145.750 41.924,145.665 40.799,145.500 40.799 C 145.335 40.800,145.229 42.465,145.264 44.500 M145.467 55.467 C 145.320 55.613,145.200 57.323,145.200 59.267 L 145.200 62.800 174.600 62.800 L 204.000 62.800 204.000 59.195 L 204.000 55.590 233.362 55.695 C 249.511 55.753,262.640 55.665,262.538 55.500 C 262.309 55.129,145.837 55.096,145.467 55.467 M203.600 59.000 L 203.600 62.400 174.600 62.400 L 145.600 62.400 145.600 59.000 L 145.600 55.600 174.600 55.600 L 203.600 55.600 203.600 59.000 M167.285 73.700 L 167.400 77.400 204.000 77.400 L 240.600 77.400 240.715 73.700 C 240.778 71.665,240.688 70.000,240.515 69.999 C 240.342 69.999,240.258 71.619,240.328 73.599 L 240.457 77.200 222.228 77.200 L 204.000 77.200 204.000 73.600 L 204.000 70.000 185.585 70.000 L 167.170 70.000 167.285 73.700 M203.600 73.800 L 203.600 77.200 185.600 77.200 L 167.600 77.200 167.600 73.800 L 167.600 70.400 185.600 70.400 L 203.600 70.400 203.600 73.800 " stroke="#ffe5a9" fill="#ffe5a9" fill-rule="evenodd"></path></g></svg>
