<?xml version="1.0" standalone="no"?>
<!DOCTYPE svg PUBLIC "-//W3C//DTD SVG 20010904//EN"
 "http://www.w3.org/TR/2001/REC-SVG-20010904/DTD/svg10.dtd">
<svg version="1.0" xmlns="http://www.w3.org/2000/svg"
 width="1024.000000pt" height="1024.000000pt" viewBox="0 0 1024.000000 1024.000000"
 preserveAspectRatio="xMidYMid meet">
<defs>
    <style type="text/css"><![CDATA[
       path {
         fill:#FFC439;
       }
    ]]></style>
  </defs>
<g transform="translate(0.000000,1024.000000) scale(0.100000,-0.100000)"
fill="#000000" stroke="none">
<path d="M5080 7590 l0 -2650 -49 0 c-230 0 -505 -159 -681 -392 -197 -261
-238 -556 -115 -833 82 -187 258 -362 457 -454 101 -47 184 -68 301 -77 l87
-7 0 -64 0 -64 -612 2 c-652 2 -667 1 -761 -47 -103 -53 -213 -171 -268 -287
-55 -116 -54 -100 -54 -1432 0 -676 3 -1242 8 -1258 l7 -27 300 0 300 0 0 768
c0 836 -2 812 55 812 57 0 55 24 55 -812 l0 -768 495 0 495 0 0 1530 0 1531
613 -3 c601 -3 613 -4 678 -26 158 -53 281 -175 357 -356 l26 -61 -3 -1180
c-2 -1096 -6 -1291 -30 -1396 l-9 -39 1754 0 1754 0 0 5120 0 5120 -2580 0
-2580 0 0 -2650z m2990 2265 c565 -66 1038 -278 1355 -606 236 -244 345 -494
345 -791 0 -179 -32 -313 -112 -473 -200 -397 -649 -716 -1213 -860 -242 -62
-385 -79 -685 -79 -270 -1 -348 5 -558 45 -531 101 -1014 381 -1262 731 -68
94 -153 271 -180 373 -28 102 -38 313 -20 423 37 229 145 434 335 631 313 325
787 538 1345 606 148 18 498 18 650 0z m-870 -2935 c167 -48 304 -149 362
-268 28 -56 33 -76 33 -141 0 -65 -5 -86 -31 -142 -119 -250 -518 -373 -858
-265 -163 51 -283 145 -339 263 -67 141 -33 290 91 405 71 65 173 120 272 147
111 29 114 30 260 26 101 -2 154 -8 210 -25z m-665 -1089 c52 -26 73 -43 97
-80 26 -40 29 -53 26 -103 -5 -73 -41 -121 -123 -163 -49 -25 -71 -30 -154
-33 -123 -5 -193 18 -263 87 -50 50 -65 94 -54 154 13 67 103 143 200 168 17
4 70 7 117 6 75 -3 96 -8 154 -36z m-1326 -907 c165 -40 360 -165 482 -307
315 -371 302 -817 -35 -1153 -152 -152 -322 -242 -523 -278 l-33 -6 0 880 0
880 22 0 c12 0 51 -7 87 -16z"/>
<path d="M6550 8760 l0 -50 1220 0 1220 0 0 50 0 50 -1220 0 -1220 0 0 -50z"/>
<path d="M6550 8430 l0 -50 1220 0 1220 0 0 50 0 50 -1220 0 -1220 0 0 -50z"/>
<path d="M6960 8100 l0 -50 810 0 810 0 0 50 0 50 -810 0 -810 0 0 -50z"/>
<path d="M2130 9859 c-973 -90 -1715 -658 -1757 -1344 -14 -230 51 -453 196
-670 59 -89 213 -250 316 -331 676 -527 1806 -624 2640 -225 227 108 387 222
545 388 717 748 253 1767 -955 2098 -298 82 -667 113 -985 84z m1500 -1099 l0
-50 -1220 0 -1220 0 0 50 0 50 1220 0 1220 0 0 -50z m0 -330 l0 -50 -1220 0
-1220 0 0 50 0 50 1220 0 1220 0 0 -50z m-410 -330 l0 -50 -810 0 -810 0 0 50
0 50 810 0 810 0 0 -50z"/>
<path d="M3053 6941 c-237 -38 -423 -162 -485 -323 -16 -42 -19 -69 -16 -128
8 -143 100 -262 263 -340 129 -62 188 -75 360 -75 172 0 231 13 360 75 111 54
185 123 231 215 35 71 36 78 32 157 -3 68 -10 93 -33 136 -90 165 -307 277
-555 287 -58 2 -128 0 -157 -4z"/>
<path d="M3690 5856 c-91 -20 -159 -65 -190 -126 -38 -74 -20 -142 51 -204
191 -163 575 -37 518 171 -21 77 -108 142 -218 163 -66 12 -91 12 -161 -4z"/>
<path d="M6070 1554 c-6 -16 -10 -317 -10 -790 l0 -764 60 0 60 0 -6 43 c-3
23 -8 49 -12 57 -3 8 -8 337 -12 731 -5 760 -5 749 -51 749 -12 0 -23 -11 -29
-26z"/>
</g>
</svg>
